<?xml version="1.0" encoding="UTF-8" standalone="no"?>
<svg
   width="32"
   height="32"
   viewBox="0 0 8.4666665 8.4666669"
   version="1.1"
   id="svg20249"
   inkscape:version="1.2 (dc2aedaf03, 2022-05-15)"
   sodipodi:docname="baseicon-mac.svg"
   xmlns:inkscape="http://www.inkscape.org/namespaces/inkscape"
   xmlns:sodipodi="http://sodipodi.sourceforge.net/DTD/sodipodi-0.dtd"
   xmlns:xlink="http://www.w3.org/1999/xlink"
   xmlns="http://www.w3.org/2000/svg"
   xmlns:svg="http://www.w3.org/2000/svg"
   xmlns:rdf="http://www.w3.org/1999/02/22-rdf-syntax-ns#"
   xmlns:cc="http://creativecommons.org/ns#"
   xmlns:dc="http://purl.org/dc/elements/1.1/">
  <defs
     id="defs20243">
    <inkscape:path-effect
       effect="clone_original"
       linkeditem="#rect824-2-2"
       method="bsplinespiro"
       allow_transforms="false"
       id="path-effect29"
       lpeversion="1" />
    <linearGradient
       inkscape:collect="always"
       id="linearGradient9165">
      <stop
         style="stop-color:#ff641b;stop-opacity:1"
         offset="0"
         id="stop9161" />
      <stop
         style="stop-color:#f3c800;stop-opacity:1"
         offset="1"
         id="stop9163" />
    </linearGradient>
    <clipPath
       clipPathUnits="userSpaceOnUse"
       id="clipPath976">
      <path
         id="path978"
         style="fill:url(#linearGradient980);fill-opacity:1;fill-rule:evenodd;stroke-width:0.999999"
         d="m 16.03125,2.9980724 a 13.000112,13.000112 0 0 0 -0.152345,0.00197 H 9.0000005 C 5.6759725,3.0000378 3,5.676019 3,9.0000379 v 6.9687311 7.031244 c 0,3.324018 2.6759725,6 6.0000005,6 H 23 c 3.324028,0 6.000001,-2.675982 6.000001,-6 V 16.029317 9.0000379 C 29.000001,5.676019 26.324028,3.0000378 23,3.0000378 h -6.867188 a 13.000112,13.000112 0 0 0 -0.101562,-0.00197 z" />
    </clipPath>
    <linearGradient
       inkscape:collect="always"
       xlink:href="#linearGradient9165"
       id="linearGradient980"
       gradientUnits="userSpaceOnUse"
       gradientTransform="translate(0,7.5590552e-5)"
       x1="3"
       y1="29"
       x2="30.5"
       y2="1.5" />
  </defs>
  <sodipodi:namedview
     id="base"
     pagecolor="#ffffff"
     bordercolor="#666666"
     borderopacity="1.0"
     inkscape:pageopacity="0.0"
     inkscape:pageshadow="2"
     inkscape:zoom="19.126673"
     inkscape:cx="1.6730563"
     inkscape:cy="15.371204"
     inkscape:document-units="mm"
     inkscape:current-layer="iconlayer"
     showgrid="true"
     units="px"
     inkscape:window-width="2560"
     inkscape:window-height="1369"
     inkscape:window-x="3832"
     inkscape:window-y="710"
     inkscape:window-maximized="1"
     inkscape:document-rotation="0"
     inkscape:pagecheckerboard="0"
     inkscape:showpageshadow="2"
     inkscape:deskcolor="#d1d1d1">
    <inkscape:grid
       type="xygrid"
       id="grid20794"
       empspacing="4"
       enabled="true" />
    <inkscape:grid
       type="xygrid"
       id="grid20796"
       empspacing="1"
       originy="0.13229167"
       originx="0.13229167"
       dotted="true"
       enabled="true" />
  </sodipodi:namedview>
  <metadata
     id="metadata20246">
    <rdf:RDF>
      <cc:Work
         rdf:about="">
        <dc:format>image/svg+xml</dc:format>
        <dc:type
           rdf:resource="http://purl.org/dc/dcmitype/StillImage" />
      </cc:Work>
    </rdf:RDF>
  </metadata>
  <g
     inkscape:label="Base"
     inkscape:groupmode="layer"
     id="layer1"
     transform="translate(0,-288.53332)"
     sodipodi:insensitive="true">
    <path
       id="rect288"
       style="fill:#646464;fill-opacity:1;fill-rule:evenodd;stroke-width:0.999999"
       d="M 16.03125,2.9980469 A 13.000112,13.000112 0 0 0 15.878906,3 H 9 C 5.6759724,3 3,5.6759811 3,9 V 15.96875 23 c 0,3.324019 2.6759724,6 6,6 h 14 c 3.324028,0 6,-2.675981 6,-6 V 16.029297 9 C 29,5.6759811 26.324028,3 23,3 H 16.132812 A 13.000112,13.000112 0 0 0 16.03125,2.99805 Z m -0.01563,1 h 0.02344 c 0.02344,4.049e-4 0.04687,0.00141 0.07031,0.00195 H 16.121094 23 c 2.787331,0 5,2.212678 5,5 V 16.029297 23 c 0,2.787322 -2.212669,5 -5,5 H 9 C 6.2126697,28 4,25.787322 4,23 V 15.96875 9 C 4,6.2126781 6.2126697,4 9,4 h 6.888672 0.0098 c 0.03906,-7.297e-4 0.07812,-0.0016 0.117187,-0.00195 z"
       transform="matrix(0.26458333,0,0,0.26458333,0,288.53332)" />
    <path
       id="rect824-2-2-2"
       style="fill:#646464;fill-opacity:1;stroke:none;stroke-width:0.292793;stroke-linecap:round;stroke-linejoin:round;stroke-miterlimit:4;stroke-dasharray:none;stroke-dashoffset:0;stroke-opacity:1;paint-order:normal"
       d="m 4.4609887,291.93795 c -0.057439,-0.0157 -0.1147587,-0.0256 -0.1718626,-0.0295 l -4.991e-4,-1.4e-4 c -0.3997524,-0.0265 -0.7744139,0.22925 -0.8844453,0.63131 l -0.8780438,3.20902 -0.122781,0.45823 1.8333886,1.3e-4 -0.002,-5.4e-4 1.8510644,5e-5 c 0.8794805,1e-5 1.5873292,-0.70784 1.5873287,-1.58732 l 3.088e-4,-1.31493 -5.725e-4,-0.49503 -1.2463925,-0.33396 z m 1.9654972,0.53736 0.00267,-0.01 -4.992e-4,-1.3e-4 z" />
    <path
       id="path1083"
       style="fill:none;fill-opacity:1;fill-rule:evenodd;stroke-width:0.999999"
       d="M 16.03125,2.9980469 A 13.000112,13.000112 45 0 0 15.878906,3 H 9 C 5.6759724,3 3,5.6759811 3,9 V 15.96875 23 c 0,3.324019 2.6759724,6 6,6 h 14 c 3.324028,0 6,-2.675981 6,-6 V 16.029297 9 C 29,5.6759811 26.324028,3 23,3 H 16.132812 A 13.000112,13.000112 45 0 0 16.03125,2.99805 Z"
       transform="matrix(0.26458333,0,0,0.26458333,0,288.53332)" />
  </g>
  <g
     inkscape:groupmode="layer"
     id="iconlayer"
     inkscape:label="Icon">
    <g
       id="g288"
       transform="matrix(0.85968525,0,0,0.85968525,0.72939475,0.83213365)">
      <path
         sodipodi:type="star"
         style="opacity:0.5;fill:#ffffff;fill-opacity:1;stroke:none;stroke-width:2;stroke-opacity:1"
         id="path1259-8"
         inkscape:flatsided="false"
         sodipodi:sides="4"
         sodipodi:cx="22"
         sodipodi:cy="22"
         sodipodi:r1="7.0710678"
         sodipodi:r2="3.5355339"
         sodipodi:arg1="-2.3561945"
         sodipodi:arg2="-1.5707963"
         inkscape:rounded="0.5"
         inkscape:randomized="0"
         d="m 17,17 c 1.842032,-1.842032 2.394973,1.464466 5,1.464466 2.605027,0 3.157968,-3.306498 5,-1.464466 1.842032,1.842032 -1.464466,2.394973 -1.464466,5 0,2.605027 3.306498,3.157968 1.464466,5 -1.842032,1.842032 -2.394973,-1.464466 -5,-1.464466 -2.605027,0 -3.157968,3.306498 -5,1.464466 -1.842032,-1.842032 1.464466,-2.394973 1.464466,-5 0,-2.605027 -3.306498,-3.157968 -1.464466,-5 z"
         transform="matrix(0.23723403,0.06356667,-0.06356667,0.23723403,1.4132797,-0.56190316)"
         inkscape:transform-center-y="0.10282012"
         inkscape:transform-center-x="-0.059363122" />
      <path
         id="path6922"
         style="opacity:0.5;fill:#ffffff;fill-opacity:1;stroke:none;stroke-width:0.491205;stroke-opacity:1"
         inkscape:transform-center-y="0.10292467"
         d="M 4.5791969,4.9221011 C 4.025113,5.2420015 4.7743287,5.583096 4.608736,6.2010964 4.4672079,6.7292865 3.8486757,6.7489389 3.8714046,7.0892436 4.1547526,7.2790797 4.48078,6.7527939 5.00897,6.8943219 5.6269705,7.0599147 5.5480173,7.8797495 6.1021015,7.5598489 6.6561854,7.2399484 5.9071586,6.8981478 6.0727513,6.2801475 6.2142794,5.7519573 6.8330702,5.7327525 6.8103411,5.3924478 6.5269931,5.2026117 6.2007075,5.72845 5.6725173,5.5869219 5.054517,5.4213292 5.1332808,4.6022003 4.5791969,4.9221011 Z"
         inkscape:transform-center-x="-0.059362949" />
      <path
         id="path6927"
         style="fill:#ffffff;fill-opacity:1;stroke:none;stroke-width:0.491205;stroke-opacity:1"
         inkscape:transform-center-y="0.10292475"
         d="m 4.8437801,5.3803727 c -0.5540839,0.3199005 0.1951321,0.660995 0.029539,1.2789954 -0.021958,0.081949 -0.055326,0.1512826 -0.0961,0.211821 0.072797,-0.00502 0.1498209,0.00118 0.2317507,0.023133 0.618,0.1655927 0.5390476,0.9854272 1.0931315,0.665527 C 6.6561848,7.2399487 5.9071587,6.8981473 6.0727513,6.2801475 6.0947044,6.1982175 6.1278492,6.1284141 6.168593,6.0678791 6.0957779,6.0729219 6.0190497,6.067152 5.9371008,6.0451939 5.3191002,5.8796011 5.3978643,5.0604723 4.8437801,5.3803727 Z"
         inkscape:transform-center-x="-0.059157166" />
    </g>
  </g>
</svg>
